<svg id="SvgjsSvg1006" width="670" height="428" xmlns="http://www.w3.org/2000/svg" version="1.1" xmlns:xlink="http://www.w3.org/1999/xlink" xmlns:svgjs="http://svgjs.com/svgjs"><defs id="SvgjsDefs1007"><marker id="SvgjsMarker1062" markerWidth="14" markerHeight="10" refX="10" refY="5" viewBox="0 0 14 10" orient="auto" markerUnits="userSpaceOnUse" stroke-dasharray="0,0"><path id="SvgjsPath1063" d="M0,0 L14,5 L0,10 L0,0" fill="#323232" stroke="#323232" stroke-width="1"></path></marker><marker id="SvgjsMarker1070" markerWidth="14" markerHeight="10" refX="10" refY="5" viewBox="0 0 14 10" orient="auto" markerUnits="userSpaceOnUse" stroke-dasharray="0,0"><path id="SvgjsPath1071" d="M0,0 L14,5 L0,10 L0,0" fill="#323232" stroke="#323232" stroke-width="1"></path></marker><marker id="SvgjsMarker1078" markerWidth="14" markerHeight="10" refX="10" refY="5" viewBox="0 0 14 10" orient="auto" markerUnits="userSpaceOnUse" stroke-dasharray="0,0"><path id="SvgjsPath1079" d="M0,0 L14,5 L0,10 L0,0" fill="#323232" stroke="#323232" stroke-width="1"></path></marker><marker id="SvgjsMarker1086" markerWidth="14" markerHeight="10" refX="10" refY="5" viewBox="0 0 14 10" orient="auto" markerUnits="userSpaceOnUse" stroke-dasharray="0,0"><path id="SvgjsPath1087" d="M0,0 L14,5 L0,10 L0,0" fill="#323232" stroke="#323232" stroke-width="1"></path></marker><marker id="SvgjsMarker1094" markerWidth="14" markerHeight="10" refX="10" refY="5" viewBox="0 0 14 10" orient="auto" markerUnits="userSpaceOnUse" stroke-dasharray="0,0"><path id="SvgjsPath1095" d="M0,0 L14,5 L0,10 L0,0" fill="#e65100" stroke="#e65100" stroke-width="1"></path></marker></defs><rect id="svgbackgroundid" width="670" height="428" fill="#ffffff"></rect><g id="SvgjsG1009" transform="translate(32,120.88363490730853)"><path id="SvgjsPath1010" d="M 0 0L 613.4469182764849 0L 0 0M 0 161L 613.4469182764849 161L 0 161Z" stroke-dasharray="3,4" stroke="rgba(255,183,77,1)" stroke-width="2" fill-opacity="1" fill="#ff9800"></path><path id="SvgjsPath1011" d="M 0 0L 613.4469182764849 0L 613.4469182764849 161L 0 161L 0 0Z" stroke="none" fill="none"></path><g id="SvgjsG1012"><text id="SvgjsText1013" font-family="微软雅黑" text-anchor="middle" font-size="13px" width="594px" fill="#323232" font-weight="400" align="middle" lineHeight="125%" anchor="middle" family="微软雅黑" size="13px" weight="400" font-style="" opacity="1" y="70.875" transform="rotate(0)"></text></g></g><g id="SvgjsG1014" transform="translate(294.72345913824245,24.99986549259347)"><path id="SvgjsPath1015" d="M 0 4Q 0 0 4 0L 96 0Q 100 0 100 4L 100 66Q 100 70 96 70L 4 70Q 0 70 0 66Z" stroke="rgba(50,50,50,1)" stroke-width="2" fill-opacity="1" fill="#81c784"></path><g id="SvgjsG1016"><text id="SvgjsText1017" font-family="微软雅黑" text-anchor="middle" font-size="15px" width="80px" fill="#323232" font-weight="700" align="middle" lineHeight="125%" anchor="middle" family="微软雅黑" size="15px" weight="700" font-style="" opacity="1" y="23.625" transform="rotate(0)"><tspan id="SvgjsTspan1018" dy="18" x="50"><tspan id="SvgjsTspan1019" style="text-decoration:;">用户缓冲区</tspan></tspan></text></g></g><g id="SvgjsG1020" transform="translate(405.14268489472727,163.99986549259347)"><path id="SvgjsPath1021" d="M 0 4Q 0 0 4 0L 135.85731510527273 0Q 139.85731510527273 0 139.85731510527273 4L 139.85731510527273 66Q 139.85731510527273 70 135.85731510527273 70L 4 70Q 0 70 0 66Z" stroke="rgba(50,50,50,1)" stroke-width="2" fill-opacity="1" fill="#e65100"></path><g id="SvgjsG1022"><text id="SvgjsText1023" font-family="微软雅黑" text-anchor="middle" font-size="13px" width="120px" fill="#323232" font-weight="400" align="middle" lineHeight="125%" anchor="middle" family="微软雅黑" size="13px" weight="400" font-style="" opacity="1" y="25.375" transform="rotate(0)"><tspan id="SvgjsTspan1024" dy="16" x="70"><tspan id="SvgjsTspan1025" style="text-decoration:;">socket 缓冲区</tspan></tspan></text></g></g><g id="SvgjsG1026" transform="translate(165,163.99986549259347)"><path id="SvgjsPath1027" d="M 0 4Q 0 0 4 0L 96 0Q 100 0 100 4L 100 66Q 100 70 96 70L 4 70Q 0 70 0 66Z" stroke="rgba(50,50,50,1)" stroke-width="2" fill-opacity="1" fill="#ff9800"></path><g id="SvgjsG1028"><text id="SvgjsText1029" font-family="微软雅黑" text-anchor="middle" font-size="13px" width="80px" fill="#323232" font-weight="400" align="middle" lineHeight="125%" anchor="middle" family="微软雅黑" size="13px" weight="400" font-style="" opacity="1" y="25.375" transform="rotate(0)"><tspan id="SvgjsTspan1030" dy="16" x="50"><tspan id="SvgjsTspan1031" style="text-decoration:;">Page Cache</tspan></tspan></text></g></g><g id="SvgjsG1032" transform="translate(425.0713424473636,332.99986549259347)"><path id="SvgjsPath1033" d="M 0 4Q 0 0 4 0L 96 0Q 100 0 100 4L 100 66Q 100 70 96 70L 4 70Q 0 70 0 66Z" stroke="rgba(50,50,50,1)" stroke-width="2" fill-opacity="1" fill="#ffffff"></path><g id="SvgjsG1034"><text id="SvgjsText1035" font-family="微软雅黑" text-anchor="middle" font-size="13px" width="80px" fill="#323232" font-weight="700" align="middle" lineHeight="125%" anchor="middle" family="微软雅黑" size="13px" weight="700" font-style="" opacity="1" y="25.375" transform="rotate(0)"><tspan id="SvgjsTspan1036" dy="16" x="50"><tspan id="SvgjsTspan1037" style="text-decoration:;">NIC缓冲区</tspan></tspan></text></g></g><g id="SvgjsG1038" transform="translate(165,322.99986549259347)"><path id="SvgjsPath1039" d="M 0 61.666666666666664L 0 0L 100 0L 100 61.666666666666664Q 75 45 50 61.666666666666664Q 25 78.33333333333333 0 61.666666666666664Z" stroke="rgba(50,50,50,1)" stroke-width="2" fill-opacity="1" fill="#ffffff"></path><g id="SvgjsG1040"><text id="SvgjsText1041" font-family="微软雅黑" text-anchor="middle" font-size="13px" width="100px" fill="#323232" font-weight="400" align="middle" lineHeight="125%" anchor="middle" family="微软雅黑" size="13px" weight="400" font-style="" opacity="1" y="21.875" transform="rotate(0)"></text></g></g><g id="SvgjsG1042" transform="translate(175,332.99986549259347)"><path id="SvgjsPath1043" d="M 0 61.666666666666664L 0 0L 100 0L 100 61.666666666666664Q 75 45 50 61.666666666666664Q 25 78.33333333333333 0 61.666666666666664Z" stroke="rgba(50,50,50,1)" stroke-width="2" fill-opacity="1" fill="#ffffff"></path><g id="SvgjsG1044"><text id="SvgjsText1045" font-family="微软雅黑" text-anchor="middle" font-size="13px" width="100px" fill="#323232" font-weight="400" align="middle" lineHeight="125%" anchor="middle" family="微软雅黑" size="13px" weight="400" font-style="" opacity="1" y="21.875" transform="rotate(0)"><tspan id="SvgjsTspan1046" dy="16" x="50"><tspan id="SvgjsTspan1047" style="text-decoration:;">磁盘文件</tspan></tspan></text></g></g><g id="SvgjsG1048" transform="translate(25,54.99986549259347)"><path id="SvgjsPath1049" d="M 0 0L 120 0L 120 40L 0 40Z" stroke="none" fill="none"></path><g id="SvgjsG1050"><text id="SvgjsText1051" font-family="微软雅黑" text-anchor="middle" font-size="13px" width="120px" fill="#323232" font-weight="400" align="middle" lineHeight="125%" anchor="middle" family="微软雅黑" size="13px" weight="400" font-style="" opacity="1" y="10.375" transform="rotate(0)"><tspan id="SvgjsTspan1052" dy="16" x="60"><tspan id="SvgjsTspan1053" style="text-decoration:;">用户空间</tspan></tspan></text></g></g><g id="SvgjsG1054" transform="translate(25,178.99986549259347)"><path id="SvgjsPath1055" d="M 0 0L 120 0L 120 40L 0 40Z" stroke="none" fill="none"></path><g id="SvgjsG1056"><text id="SvgjsText1057" font-family="微软雅黑" text-anchor="middle" font-size="15px" width="120px" fill="#ff9800" font-weight="700" align="middle" lineHeight="125%" anchor="middle" family="微软雅黑" size="15px" weight="700" font-style="" opacity="1" y="8.625" transform="rotate(0)"><tspan id="SvgjsTspan1058" dy="18" x="60"><tspan id="SvgjsTspan1059" style="text-decoration:;">内核空间</tspan></tspan></text></g></g><g id="SvgjsG1060"><path id="SvgjsPath1061" d="M215 162.99986549259347L215 59.99986549259347L291.1234591382424 59.99986549259347" stroke-dasharray="3,3" stroke="#323232" stroke-width="2" fill="none" marker-end="url(#SvgjsMarker1062)"></path><rect id="SvgjsRect1064" width="70" height="16" x="180" y="83" fill="#ffffff"></rect><text id="SvgjsText1065" font-family="微软雅黑" text-anchor="middle" font-size="13px" width="70px" fill="#81c784" font-weight="700" align="top" lineHeight="16px" anchor="middle" family="微软雅黑" size="13px" weight="700" font-style="" opacity="1" y="81.375" transform="rotate(0)"><tspan id="SvgjsTspan1066" dy="16" x="215"><tspan id="SvgjsTspan1067" style="text-decoration:;">不需要copy</tspan></tspan></text></g><g id="SvgjsG1068"><path id="SvgjsPath1069" d="M395.72345913824245 59.99986549259347L475.0713424473636 59.99986549259347L475.0713424473636 160.39986549259345" stroke-dasharray="3,3" stroke="#323232" stroke-width="2" fill="none" marker-end="url(#SvgjsMarker1070)"></path><rect id="SvgjsRect1072" width="70" height="16" x="440" y="83" fill="#ffffff"></rect><text id="SvgjsText1073" font-family="微软雅黑" text-anchor="middle" font-size="13px" width="70px" fill="#81c784" font-weight="700" align="top" lineHeight="16px" anchor="middle" family="微软雅黑" size="13px" weight="700" font-style="" opacity="1" y="81.375" transform="rotate(0)"><tspan id="SvgjsTspan1074" dy="16" x="475"><tspan id="SvgjsTspan1075" style="text-decoration:;">不需要copy</tspan></tspan></text></g><g id="SvgjsG1076"><path id="SvgjsPath1077" d="M215 321.99986549259347L215 278.49986549259347L215 278.49986549259347L215 237.5998654925935" stroke="#323232" stroke-width="2" fill="none" marker-end="url(#SvgjsMarker1078)"></path><rect id="SvgjsRect1080" width="39" height="20" x="195.5" y="257" fill="#ffffff"></rect><text id="SvgjsText1081" font-family="微软雅黑" text-anchor="middle" font-size="16px" width="39px" fill="#323232" font-weight="700" align="top" lineHeight="20px" anchor="middle" family="微软雅黑" size="16px" weight="700" font-style="" opacity="1" y="255" transform="rotate(0)"><tspan id="SvgjsTspan1082" dy="20" x="215"><tspan id="SvgjsTspan1083" style="text-decoration:;">copy</tspan></tspan></text></g><g id="SvgjsG1084"><path id="SvgjsPath1085" d="M475.0713424473636 234.99986549259347L475.0713424473636 283.49986549259347L475.0713424473636 283.49986549259347L475.0713424473636 329.39986549259345" stroke="#323232" stroke-width="2" fill="none" marker-end="url(#SvgjsMarker1086)"></path><rect id="SvgjsRect1088" width="36" height="19" x="457" y="256.5" fill="#ffffff"></rect><text id="SvgjsText1089" font-family="微软雅黑" text-anchor="middle" font-size="15px" width="36px" fill="#323232" font-weight="700" align="top" lineHeight="19px" anchor="middle" family="微软雅黑" size="15px" weight="700" font-style="" opacity="1" y="254.625" transform="rotate(0)"><tspan id="SvgjsTspan1090" dy="18" x="475"><tspan id="SvgjsTspan1091" style="text-decoration:;">copy</tspan></tspan></text></g><g id="SvgjsG1092"><path id="SvgjsPath1093" d="M266 198.99986549259347L335.0713424473636 198.99986549259347L335.0713424473636 198.99986549259347L401.54268489472724 198.99986549259347" stroke="#e65100" stroke-width="2" fill="none" marker-end="url(#SvgjsMarker1094)"></path><rect id="SvgjsRect1096" width="63" height="20" x="302.2713424473636" y="188.99986549259347" fill="#ffffff"></rect><text id="SvgjsText1097" font-family="微软雅黑" text-anchor="middle" font-size="16px" width="63px" fill="#f57c00" font-weight="700" align="top" lineHeight="20px" anchor="middle" family="微软雅黑" size="16px" weight="700" font-style="" opacity="1" y="186.99986549259347" transform="rotate(0)"><tspan id="SvgjsTspan1098" dy="20" x="333.7713424473636"><tspan id="SvgjsTspan1099" style="text-decoration:;">sendfile</tspan></tspan></text></g><g id="SvgjsG1100" transform="translate(463.5713424473636,46.99986549259347)"><path id="SvgjsPath1101" d="M 0 0L 23 26M 23 0L 0 26" stroke="rgba(50,50,50,1)" stroke-width="4" fill="none"></path><path id="SvgjsPath1102" d="M 0 0L 23 0L 23 26L 0 26Z" stroke="none" fill="none"></path></g><g id="SvgjsG1103" transform="translate(203.5,46.99986549259347)"><path id="SvgjsPath1104" d="M 0 0L 23 26M 23 0L 0 26" stroke="rgba(50,50,50,1)" stroke-width="4" fill="none"></path><path id="SvgjsPath1105" d="M 0 0L 23 0L 23 26L 0 26Z" stroke="none" fill="none"></path></g></svg>